<?xml version="1.0" encoding="utf-8"?>
<!-- Generator: Adobe Illustrator 26.3.1, SVG Export Plug-In . SVG Version: 6.00 Build 0)  -->
<svg version="1.1" id="Layer_1" xmlns="http://www.w3.org/2000/svg" xmlns:xlink="http://www.w3.org/1999/xlink" x="0px" y="0px"
	 viewBox="0 0 1024 1024" style="enable-background:new 0 0 1024 1024;" xml:space="preserve">
<style type="text/css">
	.st0{fill:#FFFFFF;}
	.st1{fill:#F7931E;stroke:#000000;stroke-width:16;stroke-linecap:round;stroke-linejoin:round;stroke-miterlimit:10;}
	.st2{fill:#F7931E;}
	.st3{fill:#FFFFFF;stroke:#000000;stroke-miterlimit:10;}
	.st4{fill:none;stroke:#000000;stroke-width:52;stroke-linejoin:round;stroke-miterlimit:10;}
	.st5{fill:none;stroke:#000000;stroke-width:43;stroke-linecap:round;stroke-linejoin:round;stroke-miterlimit:10;}
	.st6{fill:none;stroke:#000000;stroke-width:25;stroke-linecap:round;stroke-linejoin:round;stroke-miterlimit:10;}
	.st7{fill:#F7931E;stroke:#000000;stroke-width:25;stroke-linecap:round;stroke-linejoin:round;stroke-miterlimit:10;}
	.st8{fill:#F7F7F7;stroke:#000000;stroke-width:25;stroke-linecap:round;stroke-linejoin:round;stroke-miterlimit:10;}
	.st9{stroke:#000000;stroke-width:25;stroke-linecap:round;stroke-linejoin:round;stroke-miterlimit:10;}
</style>
<path class="st0" d="M314.03,997.96c145.6-557.55,266.35-376.44,319.62-454.57c25.46-37.35-39.06-514.94-39.06-514.94H47.68v969.5
	H314.03z"/>
<g>
	<path class="st1" d="M288.74,991.65c145.6-557.55,266.35-376.44,319.62-454.57c25.46-37.35-39.06-514.94-39.06-514.94h422.6v969.5
		H288.74z"/>
</g>
<g>
	<path class="st0" d="M284.7,998c145.6-557.55,266.35-376.44,319.62-454.57c25.46-37.35-39.06-514.94-39.06-514.94"/>
</g>
<g>
	<path class="st2" d="M584.2,24.71c0,0,64.53,477.59,39.06,514.94c-2.49,3.65-5.13,6.74-7.91,9.36c-4.98,4.7-10.43,7.9-16.3,10.2
		c-7.63,2.98-15.98,4.44-25.01,5.66c-63.23,8.52-159.61,5.17-270.39,429.34l511.94-2.28L620.06,554.01"/>
</g>
<g>
	<path class="st3" d="M529.8,751.09c0,0,148.16-168.05,324.02,4.94C853.82,756.04,696.49,905.42,529.8,751.09z"/>
</g>
<g>
	<path class="st3" d="M181.15,276.87c0,0,148.16-168.05,324.02,4.94C505.17,281.81,347.83,431.2,181.15,276.87z"/>
</g>
<g>
	<rect x="24.64" y="25.92" class="st4" width="969.5" height="969.5"/>
	<path class="st5" d="M290.99,995.43c145.6-557.55,266.35-376.44,319.62-454.57c25.46-37.35-39.06-514.94-39.06-514.94"/>
</g>
<g>
	<path class="st6" d="M179.15,272.32c0,0,148.16-168.05,324.02,4.94C503.17,277.27,345.84,426.65,179.15,272.32z"/>
	<circle class="st7" cx="340.75" cy="268.83" r="65.49"/>
</g>
<g>
	<path class="st8" d="M849.82,749.09c0,0-147.17,168.91-324.04-3.04C525.78,746.05,682.23,595.74,849.82,749.09z"/>
	<circle class="st9" cx="688.24" cy="753.53" r="65.49"/>
</g>
</svg>
